<?xml version="1.0" encoding="UTF-8" standalone="no"?>
<svg
   xmlns:dc="http://purl.org/dc/elements/1.1/"
   xmlns:cc="http://creativecommons.org/ns#"
   xmlns:rdf="http://www.w3.org/1999/02/22-rdf-syntax-ns#"
   xmlns:svg="http://www.w3.org/2000/svg"
   xmlns="http://www.w3.org/2000/svg"
   xmlns:sodipodi="http://sodipodi.sourceforge.net/DTD/sodipodi-0.dtd"
   xmlns:inkscape="http://www.inkscape.org/namespaces/inkscape"
   width="34.948711mm"
   height="34.822983mm"
   viewBox="0 0 34.948712 34.822983"
   version="1.1"
   id="svg8"
   inkscape:version="1.0.1 (3bc2e813f5, 2020-09-07)"
   sodipodi:docname="alcancia_logo.svg">
  <defs
     id="defs2" />
  <sodipodi:namedview
     id="base"
     pagecolor="#ffffff"
     bordercolor="#666666"
     borderopacity="1.0"
     inkscape:pageopacity="0.0"
     inkscape:pageshadow="2"
     inkscape:zoom="2.8284271"
     inkscape:cx="28.587224"
     inkscape:cy="100.58974"
     inkscape:document-units="mm"
     inkscape:current-layer="layer1"
     inkscape:document-rotation="0"
     showgrid="false"
     fit-margin-top="0"
     fit-margin-left="0"
     fit-margin-right="0"
     fit-margin-bottom="0"
     inkscape:window-width="1920"
     inkscape:window-height="1011"
     inkscape:window-x="0"
     inkscape:window-y="30"
     inkscape:window-maximized="1" />
  <metadata
     id="metadata5">
    <rdf:RDF>
      <cc:Work
         rdf:about="">
        <dc:format>image/svg+xml</dc:format>
        <dc:type
           rdf:resource="http://purl.org/dc/dcmitype/StillImage" />
        <dc:title></dc:title>
      </cc:Work>
    </rdf:RDF>
  </metadata>
  <g
     inkscape:label="Calque 1"
     inkscape:groupmode="layer"
     id="layer1"
     transform="translate(-76.993641,-116.88801)">
    <path
       style="fill:#000000;stroke-width:0.264583"
       d="m 90.476071,151.21452 c -7.08279,-1.76498 -12.05842,-7.28612 -13.110953,-14.54838 -0.390967,-2.69759 -0.02168,-5.9455 0.950272,-8.35785 0.620763,-1.5407 0.624253,-1.59149 0.145448,-2.11666 -2.083446,-2.28522 -1.931287,-5.66134 0.349921,-7.76409 1.519318,-1.40045 2.954854,-1.80591 4.873618,-1.37651 0.833479,0.18652 1.751713,0.61868 2.238255,1.0534 l 0.82499,0.73713 1.081026,-0.46338 c 2.400607,-1.02902 3.683831,-0.96992 4.124817,0.18996 0.351136,0.92356 -0.250283,1.78732 -1.534168,2.20336 -0.550857,0.1785 -1.704282,0.67624 -2.563167,1.10607 -1.789875,0.89576 -2.49485,0.77568 -3.175688,-0.54092 -1.145744,-2.21562 -4.443746,-1.33736 -4.443746,1.18337 0,0.86978 0.168633,1.15628 1.219236,2.07145 0.67058,0.58414 1.218268,1.21486 1.217084,1.4016 -0.0012,0.18674 -0.3076,0.94229 -0.680924,1.67901 -0.854329,1.68594 -1.703899,4.96666 -1.697885,6.5566 0.02022,5.34634 3.273275,10.57701 7.962317,12.80284 4.331878,2.05629 8.289809,2.03623 12.538296,-0.0635 4.71805,-2.33183 7.48197,-6.54487 7.74434,-11.80466 0.14139,-2.83461 -0.19989,-4.70694 -1.27064,-6.97105 -1.04402,-2.20759 -1.01044,-2.66601 0.27078,-3.69563 0.58077,-0.46671 1.13004,-1.14379 1.2206,-1.50462 0.23445,-0.93413 -0.36772,-2.19035 -1.27478,-2.65941 -1.12006,-0.57921 -2.17985,-0.25222 -3.16808,0.9775 -0.91941,1.14409 -1.86949,1.35111 -2.95037,0.64289 -0.33008,-0.21628 -1.2952,-0.63237 -2.144704,-0.92464 -0.8495,-0.29227 -1.706335,-0.66567 -1.904074,-0.82978 -0.487415,-0.40452 -0.454581,-1.68824 0.05625,-2.19907 0.560165,-0.56016 1.266217,-0.52732 3.190458,0.14843 l 1.62186,0.56955 0.89168,-0.67927 c 3.15357,-2.40235 7.65387,-0.78241 8.73842,3.1455 0.3724,1.34875 -0.11491,3.54052 -1.02861,4.62639 l -0.68318,0.81191 0.76249,2.0293 0.55311,2.6646 0.29678,9.38175 c 0.0799,9.15555 0.0485,10.06007 -0.36524,10.51719 -0.24894,0.27507 -0.70205,0.49831 -1.00692,0.49608 -1.36308,-0.01 -1.74493,-0.94791 -1.74493,-4.28613 v -2.73746 l -2.05052,2.0138 c -4.30953,4.23236 -10.370935,5.93438 -16.073434,4.51336 z m 1.719792,-6.78877 c -4.246547,-1.17425 -7.283904,-5.56976 -6.757906,-9.77971 0.408242,-3.26746 2.863721,-6.4022 5.910808,-7.54591 2.073698,-0.77836 5.170773,-0.66237 7.064806,0.26459 1.707799,0.83581 3.719129,2.85416 4.428989,4.44447 0.84962,1.90341 0.94334,5.05743 0.20819,7.00649 -1.60974,4.2678 -6.524041,6.80763 -10.854887,5.61007 z m 5.240134,-2.92108 c 5.635753,-2.80842 4.520243,-11.04979 -1.671429,-12.34851 -3.783205,-0.79353 -7.471037,2.02228 -7.752952,5.9197 -0.370758,5.12568 4.86806,8.69932 9.424381,6.42881 z m -6.699216,-5.3632 c -0.218877,-0.57038 0.204613,-1.22751 0.797624,-1.22751 0.59301,0 1.026705,0.64187 0.807829,1.21225 -0.217197,0.56601 -1.388257,0.58127 -1.605453,0.0153 z m 5.820225,-0.051 c -0.25255,-0.79572 0.493067,-1.54742 1.133925,-1.14318 0.251931,0.15891 0.458057,0.57361 0.458057,0.92156 0,0.88648 -1.322528,1.07059 -1.591982,0.22162 z"
       id="path24"
       sodipodi:nodetypes="ssccsccsssccsscssscssssssssssccsssccccccscsccsscssssssssssssssssss" />
  </g>
</svg>
